<?xml version="1.0" encoding="UTF-8" standalone="no"?>
<!DOCTYPE svg PUBLIC "-//W3C//DTD SVG 1.1//EN" "http://www.w3.org/Graphics/SVG/1.1/DTD/svg11.dtd">
<svg width="100%" height="100%" viewBox="0 0 1024 1024" version="1.1" xmlns="http://www.w3.org/2000/svg" xmlns:xlink="http://www.w3.org/1999/xlink" xml:space="preserve" xmlns:serif="http://www.serif.com/" style="fill-rule:evenodd;clip-rule:evenodd;">
    <g>
        <path d="M404.56,279.26C403.533,280.333 403.017,281.83 403.01,283.75C402.977,313.963 402.987,344.123 403.04,374.23C403.04,374.527 403.197,374.801 403.45,374.95L514.72,439.51C515.08,439.717 515.443,439.717 515.81,439.51L627.59,374.87C627.838,374.727 627.991,374.459 627.99,374.17C628.01,343.977 628.007,313.69 627.98,283.31C627.98,282.343 627.657,281.36 627.01,280.36C626.945,280.256 626.847,280.176 626.73,280.13L623.96,278.97C623.8,278.904 623.694,278.746 623.694,278.573C623.694,278.419 623.777,278.277 623.91,278.2C625.6,277.22 627.63,276.66 629.16,275.73C646.813,264.937 664.65,254.267 682.67,243.72C683.177,243.425 683.49,242.881 683.49,242.294C683.49,241.909 683.356,241.536 683.11,241.24L682.22,240.16C681.907,239.773 681.533,239.707 681.1,239.96L619.51,275.72C619.22,275.888 618.86,275.888 618.57,275.72L515.85,216.08C515.55,215.907 515.25,215.91 514.95,216.09L411.85,276.05C411.523,276.241 411.117,276.241 410.79,276.05L350.21,240.69C349.837,240.474 349.356,240.574 349.1,240.92L347.95,242.48C347.746,242.759 347.637,243.096 347.637,243.441C347.637,244.014 347.938,244.546 348.43,244.84L404.46,278.52C404.8,278.727 404.833,278.973 404.56,279.26" style="fill:none;fill-rule:nonzero;stroke:rgb(254,207,142);stroke-width:2px;"/>
        <path d="M744.88,449.48C745.553,449.2 746.447,448.727 747.56,448.06C767.26,436.26 786.963,424.47 806.67,412.69C807.69,412.08 808.7,411.17 809.6,410.46C810.093,410.074 810.382,409.481 810.382,408.854C810.382,408.346 810.192,407.856 809.85,407.48C808.95,406.493 807.967,406.32 806.9,406.96C785.013,420.173 762.857,433.253 740.43,446.2C739.637,446.66 738.837,446.66 738.03,446.2L634.57,386.53C634.237,386.337 633.903,386.337 633.57,386.53L523.74,450.46C523.067,450.853 522.73,451.44 522.73,452.22L522.76,547.47C522.76,547.737 522.873,547.937 523.1,548.07L634.4,612.14C634.7,612.307 635,612.307 635.3,612.14L739.76,553.17C740.06,552.997 740.36,553 740.66,553.18L807.52,592.5C807.94,592.74 808.277,592.657 808.53,592.25L809.84,590.11C809.958,589.915 810.02,589.692 810.02,589.464C810.02,589.024 809.788,588.615 809.41,588.39L745.32,550.28C744.807,549.97 744.494,549.414 744.5,548.82L744.5,450.04C744.5,449.767 744.627,449.58 744.88,449.48" style="fill:none;fill-rule:nonzero;stroke:rgb(254,194,136);stroke-width:2px;"/>
        <path d="M296.85,446.73C274.723,433.45 253.113,420.517 232.02,407.93C230.8,407.197 229.7,406.77 228.72,406.65C228.476,406.617 228.229,406.627 227.988,406.679C226.835,406.926 226.09,408.083 226.339,409.241C226.39,409.481 226.482,409.711 226.61,409.92C226.89,410.373 227.483,410.867 228.39,411.4C245.043,421.167 261.61,431.08 278.09,441.14C283.443,444.407 287.843,447.283 291.29,449.77" style="fill:none;fill-rule:nonzero;stroke:rgb(194,154,143);stroke-width:2px;"/>
        <path d="M291.29,449.77C291.197,489.63 291.203,521.187 291.31,544.44C291.323,546.273 291.523,548.43 291.91,550.91" style="fill:none;fill-rule:nonzero;stroke:rgb(241,183,139);stroke-width:2px;"/>
        <path d="M291.91,550.91L227.83,588.57C227.556,588.733 227.334,588.973 227.19,589.26C226.59,590.467 226.8,591.53 227.82,592.45C228.508,593.075 229.53,593.184 230.34,592.72L297.72,553.92" style="fill:none;fill-rule:nonzero;stroke:rgb(194,154,143);stroke-width:2px;"/>
        <path d="M297.72,553.92L398.98,611.38C399.401,611.621 399.919,611.621 400.34,611.38L508.63,548.4C508.835,548.275 508.961,548.054 508.96,547.82L508.76,452.06C508.76,451.647 508.58,451.337 508.22,451.13L399.24,387.99C398.933,387.817 398.627,387.817 398.32,387.99L296.85,446.73" style="fill:none;fill-rule:nonzero;stroke:rgb(241,183,139);stroke-width:2px;"/>
        <path d="M297.72,553.92C297.987,553.727 298.007,553.583 297.78,553.49C295.733,552.67 293.777,551.81 291.91,550.91" style="fill:none;fill-rule:nonzero;stroke:rgb(182,82,28);stroke-width:2px;"/>
        <path d="M291.29,449.77L296.85,446.73" style="fill:none;fill-rule:nonzero;stroke:rgb(182,82,28);stroke-width:2px;"/>
        <path d="M625.11,731.4C644.45,743.093 663.45,754.353 682.11,765.18C684.78,766.73 687.76,762.89 684.14,760.71C665.333,749.39 646.457,738.157 627.51,727.01" style="fill:none;fill-rule:nonzero;stroke:rgb(254,207,142);stroke-width:2px;"/>
        <path d="M627.51,727.01L627.18,623.66C627.18,623.327 627.033,623.077 626.74,622.91L516.3,559.48C516.067,559.347 515.83,559.347 515.59,559.48L406.12,623.22C405.731,623.449 405.491,623.864 405.49,624.31L405.51,729.03C405.51,729.397 405.353,729.677 405.04,729.87C386.82,740.93 368.553,751.92 350.24,762.84C349.593,763.227 349.227,763.61 349.14,763.99C349.02,764.53 349.27,765.103 349.89,765.71C350.026,765.84 350.232,765.865 350.39,765.77L407.77,732.85C408.908,732.195 410.312,732.195 411.45,732.85L515.86,792.94C516.3,793.187 516.74,793.187 517.18,792.94L625.11,731.4" style="fill:none;fill-rule:nonzero;stroke:rgb(254,194,136);stroke-width:2px;"/>
        <path d="M627.51,727.01C627.057,728.757 626.257,730.22 625.11,731.4" style="fill:none;fill-rule:nonzero;stroke:rgb(255,147,24);stroke-width:2px;"/>
        <path d="M454.43,375.39L512.56,408.22C513.156,408.554 513.888,408.554 514.49,408.22L572.63,375.44C572.863,375.313 572.98,375.117 572.98,374.85L573.05,303.64C573.05,303.32 572.91,303.08 572.63,302.92L514.8,269.71C514.46,269.517 514.103,269.49 513.73,269.63C512.463,270.097 511.243,270.667 510.07,271.34C491.437,281.94 473.247,292.36 455.5,302.6C454.487,303.187 453.98,304.067 453.98,305.24L454.01,374.67C454.01,374.99 454.15,375.23 454.43,375.39" style="fill:none;fill-rule:nonzero;stroke:rgb(254,207,142);stroke-width:2px;"/>
        <path d="M465.02,325.3C465.023,325.404 465.08,325.498 465.17,325.55L513.28,353C513.373,353.054 513.487,353.054 513.58,353L562.1,325.27C562.193,325.216 562.25,325.117 562.25,325.01L562.25,309.91C562.25,309.803 562.193,309.704 562.1,309.65L513.86,282.03C513.767,281.976 513.653,281.976 513.56,282.03L464.92,309.82C464.824,309.875 464.766,309.979 464.77,310.09L465.02,325.3" style="fill:none;fill-rule:nonzero;stroke:rgb(254,207,142);stroke-width:2px;"/>
        <path d="M463.95,370.23C463.95,370.507 464.099,370.763 464.34,370.9L512.81,398.66C513.045,398.794 513.335,398.794 513.57,398.66L562.48,370.74C562.721,370.603 562.87,370.347 562.87,370.07L562.7,336.32C562.7,336.32 562.7,336.32 562.7,336.32C562.7,335.897 562.352,335.55 561.93,335.55C561.797,335.55 561.666,335.584 561.55,335.65L513.53,362.96C513.295,363.094 513.005,363.094 512.77,362.96L465.31,335.75C465.192,335.681 465.057,335.644 464.92,335.644C464.499,335.644 464.152,335.989 464.15,336.41L463.95,370.23" style="fill:none;fill-rule:nonzero;stroke:rgb(254,207,142);stroke-width:2px;"/>
        <path d="M576.4,544.13C595.46,554.323 614.32,564.883 632.98,575.81C633.221,575.953 633.522,575.957 633.77,575.82L690.19,544.11C690.517,543.93 690.68,543.657 690.68,543.29L690.78,474.52C690.787,474.1 690.603,473.783 690.23,473.57L634.2,441.34C633.508,440.938 632.652,440.934 631.96,441.33L575.68,473.53C575.371,473.708 575.18,474.037 575.18,474.39C575.347,496.203 575.467,517.927 575.54,539.56C575.55,540.91 574.36,543.04 576.4,544.13" style="fill:none;fill-rule:nonzero;stroke:rgb(254,194,136);stroke-width:2px;"/>
        <path d="M342.51,543.43C342.512,543.555 342.581,543.669 342.69,543.73L400.24,576.11C400.346,576.169 400.474,576.169 400.58,576.11L458.81,543.55C458.922,543.488 458.991,543.368 458.99,543.24L459.03,474.08C459.028,473.955 458.959,473.841 458.85,473.78L400.84,440.99C400.734,440.931 400.606,440.931 400.5,440.99L342.62,473.86C342.511,473.921 342.442,474.035 342.44,474.16L342.51,543.43" style="fill:none;fill-rule:nonzero;stroke:rgb(241,183,139);stroke-width:2px;"/>
        <path d="M585.75,494.76C585.75,494.872 585.812,494.976 585.91,495.03L632.38,521.25C632.473,521.302 632.587,521.302 632.68,521.25L680.09,494.49C680.188,494.436 680.25,494.332 680.25,494.22L680.25,480.46C680.25,480.348 680.188,480.244 680.09,480.19L633.29,453.32C633.197,453.268 633.083,453.268 632.99,453.32L585.91,480.2C585.812,480.254 585.75,480.358 585.75,480.47L585.75,494.76" style="fill:none;fill-rule:nonzero;stroke:rgb(254,194,136);stroke-width:2px;"/>
        <path d="M633.04,531.06C632.903,531.137 632.737,531.137 632.6,531.06L586.46,504.99C586.393,504.952 586.317,504.933 586.24,504.933C585.994,504.933 585.791,505.134 585.79,505.38L585.65,538.56C585.651,538.722 585.739,538.871 585.88,538.95L633.04,565.93C633.177,566.007 633.343,566.007 633.48,565.93L680.27,539.25C680.411,539.171 680.499,539.022 680.5,538.86L680.5,504.92C680.499,504.674 680.296,504.473 680.05,504.473C679.973,504.473 679.897,504.492 679.83,504.53L633.04,531.06" style="fill:none;fill-rule:nonzero;stroke:rgb(254,194,136);stroke-width:2px;"/>
        <path d="M353.48,495.07C368.273,503.017 382.88,511.23 397.3,519.71C398.267,520.277 399.007,520.767 399.52,521.18C399.809,521.41 400.207,521.442 400.52,521.26C415.293,512.88 430.063,504.49 444.83,496.09C445.257,495.85 446.21,495.44 447.69,494.86C448.016,494.733 448.231,494.422 448.23,494.08L448.38,480.96C448.387,480.647 448.253,480.413 447.98,480.26L400.94,453.61C400.754,453.505 400.526,453.505 400.34,453.61L353.45,480.41C353.15,480.583 353,480.84 353,481.18L353,494.26C352.999,494.597 353.184,494.909 353.48,495.07" style="fill:none;fill-rule:nonzero;stroke:rgb(241,183,139);stroke-width:2px;"/>
        <path d="M352.75,538.49C352.75,538.767 352.899,539.023 353.14,539.16L400.02,565.9C400.255,566.034 400.545,566.034 400.78,565.9L448.42,538.77C448.661,538.633 448.81,538.377 448.81,538.1L448.62,505.26C448.62,505.26 448.62,505.26 448.62,505.26C448.62,504.837 448.272,504.49 447.85,504.49C447.717,504.49 447.586,504.524 447.47,504.59L400.44,531.38C400.205,531.514 399.915,531.514 399.68,531.38L353.9,505.3C353.784,505.234 353.653,505.2 353.52,505.2C353.098,505.2 352.75,505.547 352.75,505.97C352.75,505.97 352.75,538.49 352.75,538.49" style="fill:none;fill-rule:nonzero;stroke:rgb(194,154,143);stroke-width:2px;"/>
        <path d="M459.12,714.38L516.6,746.41C516.953,746.609 517.387,746.609 517.74,746.41L574.26,714.88C574.6,714.693 574.783,714.407 574.81,714.02C574.923,712.507 574.987,711 575,709.5C575.12,688.64 575.03,667.777 574.73,646.91C574.7,645.53 575.83,643.5 573.86,642.36C555.327,631.653 536.757,621.16 518.15,610.88C517.288,610.402 516.235,610.41 515.38,610.9L459.83,642.49C459.311,642.787 458.99,643.342 458.99,643.94L459.01,714.19C459.01,714.27 459.052,714.343 459.12,714.38" style="fill:none;fill-rule:nonzero;stroke:rgb(254,194,136);stroke-width:2px;"/>
        <path d="M469.51,664.62C469.512,664.959 469.695,665.272 469.99,665.44L515.94,691.62C516.229,691.789 516.587,691.793 516.88,691.63L563.78,665.22C564.082,665.053 564.27,664.735 564.27,664.39L564.2,649.79C564.198,649.451 564.015,649.138 563.72,648.97L517.47,622.81C517.179,622.644 516.821,622.644 516.53,622.81L469.99,649.41C469.695,649.578 469.512,649.891 469.51,650.23L469.51,664.62" style="fill:none;fill-rule:nonzero;stroke:rgb(254,194,136);stroke-width:2px;"/>
        <path d="M468.94,709.53C468.941,709.754 469.064,709.961 469.26,710.07L516.5,736.78C516.692,736.891 516.928,736.891 517.12,736.78L564.44,709.94C564.633,709.829 564.751,709.622 564.75,709.4L564.75,675.7C564.749,675.361 564.469,675.083 564.13,675.083C564.025,675.083 563.922,675.109 563.83,675.16L516.58,701.59C516.391,701.697 516.159,701.697 515.97,701.59L469.95,675.4C469.858,675.349 469.755,675.323 469.65,675.323C469.314,675.323 469.037,675.595 469.03,675.93L468.94,709.53" style="fill:none;fill-rule:nonzero;stroke:rgb(241,183,139);stroke-width:2px;"/>
    </g>
    <path d="M404.46,278.52L348.43,244.84C347.938,244.546 347.637,244.014 347.637,243.441C347.637,243.096 347.746,242.759 347.95,242.48L349.1,240.92C349.356,240.574 349.837,240.474 350.21,240.69L410.79,276.05C411.117,276.241 411.523,276.241 411.85,276.05L514.95,216.09C515.25,215.91 515.55,215.907 515.85,216.08L618.57,275.72C618.86,275.888 619.22,275.888 619.51,275.72L681.1,239.96C681.533,239.707 681.907,239.773 682.22,240.16L683.11,241.24C683.356,241.536 683.49,241.909 683.49,242.294C683.49,242.881 683.177,243.425 682.67,243.72C664.65,254.267 646.813,264.937 629.16,275.73C627.63,276.66 625.6,277.22 623.91,278.2C623.777,278.277 623.694,278.419 623.694,278.573C623.694,278.746 623.8,278.904 623.96,278.97L626.73,280.13C626.847,280.176 626.945,280.256 627.01,280.36C627.657,281.36 627.98,282.343 627.98,283.31C628.007,313.69 628.01,343.977 627.99,374.17C627.991,374.459 627.838,374.727 627.59,374.87L515.81,439.51C515.443,439.717 515.08,439.717 514.72,439.51L403.45,374.95C403.197,374.801 403.04,374.527 403.04,374.23C402.987,344.123 402.977,313.963 403.01,283.75C403.017,281.83 403.533,280.333 404.56,279.26C404.833,278.973 404.8,278.727 404.46,278.52ZM454.43,375.39L512.56,408.22C513.156,408.554 513.888,408.554 514.49,408.22L572.63,375.44C572.863,375.313 572.98,375.117 572.98,374.85L573.05,303.64C573.05,303.32 572.91,303.08 572.63,302.92L514.8,269.71C514.46,269.517 514.103,269.49 513.73,269.63C512.463,270.097 511.243,270.667 510.07,271.34C491.437,281.94 473.247,292.36 455.5,302.6C454.487,303.187 453.98,304.067 453.98,305.24L454.01,374.67C454.01,374.99 454.15,375.23 454.43,375.39Z" style="fill:rgb(255,160,30);fill-rule:nonzero;"/>
    <path d="M454.43,375.39C454.15,375.23 454.01,374.99 454.01,374.67L453.98,305.24C453.98,304.067 454.487,303.187 455.5,302.6C473.247,292.36 491.437,281.94 510.07,271.34C511.243,270.667 512.463,270.097 513.73,269.63C514.103,269.49 514.46,269.517 514.8,269.71L572.63,302.92C572.91,303.08 573.05,303.32 573.05,303.64L572.98,374.85C572.98,375.117 572.863,375.313 572.63,375.44L514.49,408.22C513.888,408.554 513.156,408.554 512.56,408.22L454.43,375.39ZM465.02,325.3C465.023,325.404 465.08,325.498 465.17,325.55L513.28,353C513.373,353.054 513.487,353.054 513.58,353L562.1,325.27C562.193,325.216 562.25,325.117 562.25,325.01L562.25,309.91C562.25,309.803 562.193,309.704 562.1,309.65L513.86,282.03C513.767,281.976 513.653,281.976 513.56,282.03L464.92,309.82C464.824,309.875 464.766,309.979 464.77,310.09L465.02,325.3ZM463.95,370.23C463.95,370.507 464.099,370.763 464.34,370.9L512.81,398.66C513.045,398.794 513.335,398.794 513.57,398.66L562.48,370.74C562.721,370.603 562.87,370.347 562.87,370.07L562.7,336.32C562.7,336.32 562.7,336.32 562.7,336.32C562.7,335.897 562.352,335.55 561.93,335.55C561.797,335.55 561.666,335.584 561.55,335.65L513.53,362.96C513.295,363.094 513.005,363.094 512.77,362.96L465.31,335.75C465.192,335.681 465.057,335.644 464.92,335.644C464.499,335.644 464.152,335.989 464.15,336.41L463.95,370.23Z" style="fill:rgb(253,254,254);fill-rule:nonzero;"/>
    <path d="M465.02,325.3L464.77,310.09C464.766,309.979 464.824,309.875 464.92,309.82L513.56,282.03C513.653,281.976 513.767,281.976 513.86,282.03L562.1,309.65C562.193,309.704 562.25,309.803 562.25,309.91L562.25,325.01C562.25,325.117 562.193,325.216 562.1,325.27L513.58,353C513.487,353.054 513.373,353.054 513.28,353L465.17,325.55C465.08,325.498 465.023,325.404 465.02,325.3Z" style="fill:rgb(255,160,30);fill-rule:nonzero;"/>
    <path d="M463.95,370.23L464.15,336.41C464.152,335.989 464.499,335.644 464.92,335.644C465.057,335.644 465.192,335.681 465.31,335.75L512.77,362.96C513.005,363.094 513.295,363.094 513.53,362.96L561.55,335.65C561.666,335.584 561.797,335.55 561.93,335.55C562.352,335.55 562.7,335.897 562.7,336.32C562.7,336.32 562.7,336.32 562.7,336.32L562.87,370.07C562.87,370.347 562.721,370.603 562.48,370.74L513.57,398.66C513.335,398.794 513.045,398.794 512.81,398.66L464.34,370.9C464.099,370.763 463.95,370.507 463.95,370.23Z" style="fill:rgb(255,160,30);fill-rule:nonzero;"/>
    <path d="M744.5,450.04L744.5,548.82C744.494,549.414 744.807,549.97 745.32,550.28L809.41,588.39C809.788,588.615 810.02,589.024 810.02,589.464C810.02,589.692 809.958,589.915 809.84,590.11L808.53,592.25C808.277,592.657 807.94,592.74 807.52,592.5L740.66,553.18C740.36,553 740.06,552.997 739.76,553.17L635.3,612.14C635,612.307 634.7,612.307 634.4,612.14L523.1,548.07C522.873,547.937 522.76,547.737 522.76,547.47L522.73,452.22C522.73,451.44 523.067,450.853 523.74,450.46L633.57,386.53C633.903,386.337 634.237,386.337 634.57,386.53L738.03,446.2C738.837,446.66 739.637,446.66 740.43,446.2C762.857,433.253 785.013,420.173 806.9,406.96C807.967,406.32 808.95,406.493 809.85,407.48C810.192,407.856 810.382,408.346 810.382,408.854C810.382,409.481 810.093,410.074 809.6,410.46C808.7,411.17 807.69,412.08 806.67,412.69C786.963,424.47 767.26,436.26 747.56,448.06C746.447,448.727 745.553,449.2 744.88,449.48C744.627,449.58 744.5,449.767 744.5,450.04ZM576.4,544.13C595.46,554.323 614.32,564.883 632.98,575.81C633.221,575.953 633.522,575.957 633.77,575.82L690.19,544.11C690.517,543.93 690.68,543.657 690.68,543.29L690.78,474.52C690.787,474.1 690.603,473.783 690.23,473.57L634.2,441.34C633.508,440.938 632.652,440.934 631.96,441.33L575.68,473.53C575.371,473.708 575.18,474.037 575.18,474.39C575.347,496.203 575.467,517.927 575.54,539.56C575.55,540.91 574.36,543.04 576.4,544.13Z" style="fill:rgb(254,133,18);fill-rule:nonzero;"/>
    <path d="M297.72,553.92C297.987,553.727 298.007,553.583 297.78,553.49C295.733,552.67 293.777,551.81 291.91,550.91C291.523,548.43 291.323,546.273 291.31,544.44C291.203,521.187 291.197,489.63 291.29,449.77L296.85,446.73L398.32,387.99C398.627,387.817 398.933,387.817 399.24,387.99L508.22,451.13C508.58,451.337 508.76,451.647 508.76,452.06L508.96,547.82C508.961,548.054 508.835,548.275 508.63,548.4L400.34,611.38C399.919,611.621 399.401,611.621 398.98,611.38L297.72,553.92ZM342.51,543.43C342.512,543.555 342.581,543.669 342.69,543.73L400.24,576.11C400.346,576.169 400.474,576.169 400.58,576.11L458.81,543.55C458.922,543.488 458.991,543.368 458.99,543.24L459.03,474.08C459.028,473.955 458.959,473.841 458.85,473.78L400.84,440.99C400.734,440.931 400.606,440.931 400.5,440.99L342.62,473.86C342.511,473.921 342.442,474.035 342.44,474.16L342.51,543.43Z" style="fill:rgb(229,111,24);fill-rule:nonzero;"/>
    <path d="M296.85,446.73L291.29,449.77C287.843,447.283 283.443,444.407 278.09,441.14C261.61,431.08 245.043,421.167 228.39,411.4C227.483,410.867 226.89,410.373 226.61,409.92C226.482,409.711 226.39,409.481 226.339,409.241C226.09,408.083 226.835,406.926 227.988,406.679C228.229,406.627 228.476,406.617 228.72,406.65C229.7,406.77 230.8,407.197 232.02,407.93C253.113,420.517 274.723,433.45 296.85,446.73Z" style="fill:rgb(134,53,32);fill-rule:nonzero;"/>
    <path d="M576.4,544.13C574.36,543.04 575.55,540.91 575.54,539.56C575.467,517.927 575.347,496.203 575.18,474.39C575.18,474.037 575.371,473.708 575.68,473.53L631.96,441.33C632.652,440.934 633.508,440.938 634.2,441.34L690.23,473.57C690.603,473.783 690.787,474.1 690.78,474.52L690.68,543.29C690.68,543.657 690.517,543.93 690.19,544.11L633.77,575.82C633.522,575.957 633.221,575.953 632.98,575.81C614.32,564.883 595.46,554.323 576.4,544.13ZM585.75,494.76C585.75,494.872 585.812,494.976 585.91,495.03L632.38,521.25C632.473,521.302 632.587,521.302 632.68,521.25L680.09,494.49C680.188,494.436 680.25,494.332 680.25,494.22L680.25,480.46C680.25,480.348 680.188,480.244 680.09,480.19L633.29,453.32C633.197,453.268 633.083,453.268 632.99,453.32L585.91,480.2C585.812,480.254 585.75,480.358 585.75,480.47L585.75,494.76ZM633.04,531.06C632.903,531.137 632.737,531.137 632.6,531.06L586.46,504.99C586.393,504.952 586.317,504.933 586.24,504.933C585.994,504.933 585.791,505.134 585.79,505.38L585.65,538.56C585.651,538.722 585.739,538.871 585.88,538.95L633.04,565.93C633.177,566.007 633.343,566.007 633.48,565.93L680.27,539.25C680.411,539.171 680.499,539.022 680.5,538.86L680.5,504.92C680.499,504.674 680.296,504.473 680.05,504.473C679.973,504.473 679.897,504.492 679.83,504.53L633.04,531.06Z" style="fill:rgb(253,254,254);fill-rule:nonzero;"/>
    <path d="M342.51,543.43L342.44,474.16C342.442,474.035 342.511,473.921 342.62,473.86L400.5,440.99C400.606,440.931 400.734,440.931 400.84,440.99L458.85,473.78C458.959,473.841 459.028,473.955 459.03,474.08L458.99,543.24C458.991,543.368 458.922,543.488 458.81,543.55L400.58,576.11C400.474,576.169 400.346,576.169 400.24,576.11L342.69,543.73C342.581,543.669 342.512,543.555 342.51,543.43ZM353.48,495.07C368.273,503.017 382.88,511.23 397.3,519.71C398.267,520.277 399.007,520.767 399.52,521.18C399.809,521.41 400.207,521.442 400.52,521.26C415.293,512.88 430.063,504.49 444.83,496.09C445.257,495.85 446.21,495.44 447.69,494.86C448.016,494.733 448.231,494.422 448.23,494.08L448.38,480.96C448.387,480.647 448.253,480.413 447.98,480.26L400.94,453.61C400.754,453.505 400.526,453.505 400.34,453.61L353.45,480.41C353.15,480.583 353,480.84 353,481.18L353,494.26C352.999,494.597 353.184,494.909 353.48,495.07ZM352.75,538.49C352.75,538.767 352.899,539.023 353.14,539.16L400.02,565.9C400.255,566.034 400.545,566.034 400.78,565.9L448.42,538.77C448.661,538.633 448.81,538.377 448.81,538.1L448.62,505.26C448.62,505.26 448.62,505.26 448.62,505.26C448.62,504.837 448.272,504.49 447.85,504.49C447.717,504.49 447.586,504.524 447.47,504.59L400.44,531.38C400.205,531.514 399.915,531.514 399.68,531.38L353.9,505.3C353.784,505.234 353.653,505.2 353.52,505.2C353.098,505.2 352.75,505.547 352.75,505.97C352.75,505.97 352.75,538.49 352.75,538.49Z" style="fill:rgb(253,254,254);fill-rule:nonzero;"/>
    <path d="M585.75,494.76L585.75,480.47C585.75,480.358 585.812,480.254 585.91,480.2L632.99,453.32C633.083,453.268 633.197,453.268 633.29,453.32L680.09,480.19C680.188,480.244 680.25,480.348 680.25,480.46L680.25,494.22C680.25,494.332 680.188,494.436 680.09,494.49L632.68,521.25C632.587,521.302 632.473,521.302 632.38,521.25L585.91,495.03C585.812,494.976 585.75,494.872 585.75,494.76Z" style="fill:rgb(254,133,18);fill-rule:nonzero;"/>
    <path d="M353.48,495.07C353.184,494.909 352.999,494.597 353,494.26L353,481.18C353,480.84 353.15,480.583 353.45,480.41L400.34,453.61C400.526,453.505 400.754,453.505 400.94,453.61L447.98,480.26C448.253,480.413 448.387,480.647 448.38,480.96L448.23,494.08C448.231,494.422 448.016,494.733 447.69,494.86C446.21,495.44 445.257,495.85 444.83,496.09C430.063,504.49 415.293,512.88 400.52,521.26C400.207,521.442 399.809,521.41 399.52,521.18C399.007,520.767 398.267,520.277 397.3,519.71C382.88,511.23 368.273,503.017 353.48,495.07Z" style="fill:rgb(229,111,24);fill-rule:nonzero;"/>
    <path d="M352.75,538.49C352.75,538.49 352.75,505.97 352.75,505.97C352.75,505.547 353.098,505.2 353.52,505.2C353.653,505.2 353.784,505.234 353.9,505.3L399.68,531.38C399.915,531.514 400.205,531.514 400.44,531.38L447.47,504.59C447.586,504.524 447.717,504.49 447.85,504.49C448.272,504.49 448.62,504.837 448.62,505.26C448.62,505.26 448.62,505.26 448.62,505.26L448.81,538.1C448.81,538.377 448.661,538.633 448.42,538.77L400.78,565.9C400.545,566.034 400.255,566.034 400.02,565.9L353.14,539.16C352.899,539.023 352.75,538.767 352.75,538.49Z" style="fill:rgb(134,53,32);fill-rule:nonzero;"/>
    <path d="M633.04,531.06L679.83,504.53C679.897,504.492 679.973,504.473 680.05,504.473C680.296,504.473 680.499,504.674 680.5,504.92L680.5,538.86C680.499,539.022 680.411,539.171 680.27,539.25L633.48,565.93C633.343,566.007 633.177,566.007 633.04,565.93L585.88,538.95C585.739,538.871 585.651,538.722 585.65,538.56L585.79,505.38C585.791,505.134 585.994,504.933 586.24,504.933C586.317,504.933 586.393,504.952 586.46,504.99L632.6,531.06C632.737,531.137 632.903,531.137 633.04,531.06Z" style="fill:rgb(254,133,18);fill-rule:nonzero;"/>
    <path d="M291.91,550.91C293.777,551.81 295.733,552.67 297.78,553.49C298.007,553.583 297.987,553.727 297.72,553.92L230.34,592.72C229.53,593.184 228.508,593.075 227.82,592.45C226.8,591.53 226.59,590.467 227.19,589.26C227.334,588.973 227.556,588.733 227.83,588.57L291.91,550.91Z" style="fill:rgb(134,53,32);fill-rule:nonzero;"/>
    <path d="M627.51,727.01C627.057,728.757 626.257,730.22 625.11,731.4L517.18,792.94C516.74,793.187 516.3,793.187 515.86,792.94L411.45,732.85C410.312,732.195 408.908,732.195 407.77,732.85L350.39,765.77C350.232,765.865 350.026,765.84 349.89,765.71C349.27,765.103 349.02,764.53 349.14,763.99C349.227,763.61 349.593,763.227 350.24,762.84C368.553,751.92 386.82,740.93 405.04,729.87C405.353,729.677 405.51,729.397 405.51,729.03L405.49,624.31C405.491,623.864 405.731,623.449 406.12,623.22L515.59,559.48C515.83,559.347 516.067,559.347 516.3,559.48L626.74,622.91C627.033,623.077 627.18,623.327 627.18,623.66L627.51,727.01ZM459.12,714.38L516.6,746.41C516.953,746.609 517.387,746.609 517.74,746.41L574.26,714.88C574.6,714.693 574.783,714.407 574.81,714.02C574.923,712.507 574.987,711 575,709.5C575.12,688.64 575.03,667.777 574.73,646.91C574.7,645.53 575.83,643.5 573.86,642.36C555.327,631.653 536.757,621.16 518.15,610.88C517.288,610.402 516.235,610.41 515.38,610.9L459.83,642.49C459.311,642.787 458.99,643.342 458.99,643.94L459.01,714.19C459.01,714.27 459.052,714.343 459.12,714.38Z" style="fill:rgb(254,133,18);fill-rule:nonzero;"/>
    <path d="M459.12,714.38C459.052,714.343 459.01,714.27 459.01,714.19L458.99,643.94C458.99,643.342 459.311,642.787 459.83,642.49L515.38,610.9C516.235,610.41 517.288,610.402 518.15,610.88C536.757,621.16 555.327,631.653 573.86,642.36C575.83,643.5 574.7,645.53 574.73,646.91C575.03,667.777 575.12,688.64 575,709.5C574.987,711 574.923,712.507 574.81,714.02C574.783,714.407 574.6,714.693 574.26,714.88L517.74,746.41C517.387,746.609 516.953,746.609 516.6,746.41L459.12,714.38ZM469.51,664.62C469.512,664.959 469.695,665.272 469.99,665.44L515.94,691.62C516.229,691.789 516.587,691.793 516.88,691.63L563.78,665.22C564.082,665.053 564.27,664.735 564.27,664.39L564.2,649.79C564.198,649.451 564.015,649.138 563.72,648.97L517.47,622.81C517.179,622.644 516.821,622.644 516.53,622.81L469.99,649.41C469.695,649.578 469.512,649.891 469.51,650.23L469.51,664.62ZM468.94,709.53C468.941,709.754 469.064,709.961 469.26,710.07L516.5,736.78C516.692,736.891 516.928,736.891 517.12,736.78L564.44,709.94C564.633,709.829 564.751,709.622 564.75,709.4L564.75,675.7C564.749,675.361 564.469,675.083 564.13,675.083C564.025,675.083 563.922,675.109 563.83,675.16L516.58,701.59C516.391,701.697 516.159,701.697 515.97,701.59L469.95,675.4C469.858,675.349 469.755,675.323 469.65,675.323C469.314,675.323 469.037,675.595 469.03,675.93L468.94,709.53Z" style="fill:rgb(253,254,254);fill-rule:nonzero;"/>
    <path d="M469.51,664.62L469.51,650.23C469.512,649.891 469.695,649.578 469.99,649.41L516.53,622.81C516.821,622.644 517.179,622.644 517.47,622.81L563.72,648.97C564.015,649.138 564.198,649.451 564.2,649.79L564.27,664.39C564.27,664.735 564.082,665.053 563.78,665.22L516.88,691.63C516.587,691.793 516.229,691.789 515.94,691.62L469.99,665.44C469.695,665.272 469.512,664.959 469.51,664.62Z" style="fill:rgb(254,133,18);fill-rule:nonzero;"/>
    <path d="M468.94,709.53L469.03,675.93C469.037,675.595 469.314,675.323 469.65,675.323C469.755,675.323 469.858,675.349 469.95,675.4L515.97,701.59C516.159,701.697 516.391,701.697 516.58,701.59L563.83,675.16C563.922,675.109 564.025,675.083 564.13,675.083C564.469,675.083 564.749,675.361 564.75,675.7L564.75,709.4C564.751,709.622 564.633,709.829 564.44,709.94L517.12,736.78C516.928,736.891 516.692,736.891 516.5,736.78L469.26,710.07C469.064,709.961 468.941,709.754 468.94,709.53Z" style="fill:rgb(229,111,24);fill-rule:nonzero;"/>
    <path d="M627.51,727.01C646.457,738.157 665.333,749.39 684.14,760.71C687.76,762.89 684.78,766.73 682.11,765.18C663.45,754.353 644.45,743.093 625.11,731.4C626.257,730.22 627.057,728.757 627.51,727.01Z" style="fill:rgb(255,160,30);fill-rule:nonzero;"/>
</svg>
